<svg width="112" height="73" viewBox="0 0 112 73" fill="none" xmlns="http://www.w3.org/2000/svg">
<path d="M66.5632 1.38623L13.002 1.38627C6.33898 1.38628 0.937501 6.78776 0.937503 13.4508V13.4508C0.937504 18.6141 4.22325 23.2051 9.11061 24.8705L14.5044 26.7085C17.0833 27.5873 19.9297 27.1363 22.1105 25.5032V25.5032C24.8573 23.4464 28.5904 23.3046 31.4853 25.147L31.7305 25.3031C34.4456 27.0311 37.8945 27.1131 40.6887 25.516L42.1859 24.6602C44.947 23.082 48.3624 23.198 51.0101 24.9597L51.288 25.1447C53.9818 26.9372 57.4958 26.9081 60.1596 25.0713V25.0713C62.7827 23.2624 66.2352 23.2043 68.9178 24.9238L69.3332 25.1901C72.1073 26.9683 75.6672 26.9507 78.4236 25.1452V25.1452C81.2512 23.293 84.9161 23.3263 87.7096 25.2295L88.2146 25.5736C90.5676 27.1767 93.5265 27.61 96.2403 26.7489L102.679 24.7059C107.596 23.1455 110.938 18.5803 110.938 13.421V13.421V13.421C110.938 6.77439 105.549 1.38626 98.9028 1.38624L95.2103 1.38623L79.483 1.38628" stroke="black" stroke-width="1.5" stroke-linecap="round" stroke-linejoin="round"/>
<path d="M9.58398 24.9316C11.1429 28.7172 12.2819 34.882 12.2819 37.8211C12.2819 42.5957 27.1011 42.8924 27.1011 50.582C27.1011 57.1652 32.8907 59.1181 35.1328 69.0432C36.3301 74.3428 46.5612 71.6871 55.2688 67.5726C58.2812 66.1491 58.089 56.7322 61.83 55.129C65.571 53.5257 67.2599 51.2828 70.8799 53.2059C74.4998 55.129 82.8923 52.1853 84.2283 50.582C85.8984 48.5779 84.5623 39.2254 91.9106 36.5533C99.259 33.8812 94.9547 28.2718 101.969 24.9317" stroke="black" stroke-width="1.5"/>
</svg>
